<svg width="750" height="330" viewBox="0 -30 750 330" xmlns="http://www.w3.org/2000/svg">
  <defs>
    <style>
      .box-face { fill: #b6d7ea; stroke: #4477aa; stroke-width: 2; }
      .box-face-absent { fill: #ddd; stroke: #888; stroke-width: 2; stroke-dasharray: 3,3;}
      .box-top { fill: #7db8da; stroke: #4477aa; stroke-width: 2; }
      .box-right { fill: #4477aaff; stroke: #4477aa; stroke-width: 2; }
      .box-text { font-family: Arial, sans-serif; font-size: 14px; font-weight: bold; text-anchor: middle; fill: #000; }
      .box-text-small { font-family: Arial, sans-serif; font-size: 12px; text-anchor: middle; fill: #000; }
      .axis-label { font-family: Arial, sans-serif; font-size: 12px; font-weight: bold; fill: #4477aa; }
      .axis-arrow { stroke: #4477aa; stroke-width: 2; fill: none; marker-end: url(#arrowhead); }
    </style>
    <marker id="arrowhead" markerWidth="10" markerHeight="7"
     refX="9" refY="3.5" orient="auto">
      <polygon points="0 0, 10 3.5, 0 7" fill="#4477aa" />
    </marker>
  </defs>

  <!-- Chat Feature (Back - offset +90, -90) -->
  <!-- Chat - Front End Box (Tier 3) -->
  <g>
    <rect x="140" y="-10" width="120" height="80" class="box-face"/>
    <polygon points="140,-10 160,-30 280,-30 260,-10" class="box-top"/>
    <polygon points="260,-10 280,-30 280,50 260,70" class="box-right"/>
    <text x="200" y="20" class="box-text">Tier 3</text>
    <text x="200" y="40" class="box-text-small">Front End</text>
    <text x="125" y="-15" class="box-text" transform="skewX(-45) translate(65,0)">Chat</text>
  </g>

  <!-- Chat - Web API Box (Tier 3) -->
  <g>
    <rect x="320" y="-10" width="120" height="80" class="box-face"/>
    <polygon points="320,-10 340,-30 460,-30 440,-10" class="box-top"/>
    <polygon points="440,-10 460,-30 460,50 440,70" class="box-right"/>
    <text x="380" y="20" class="box-text">Tier 3</text>
    <text x="380" y="40" class="box-text-small">Web API</text>
    <text x="300" y="-15" class="box-text" transform="skewX(-45) translate(65,0)">Chat</text>
  </g>

  <!-- Chat - AI Model Box (Tier 3) -->
  <g>
    <rect x="500" y="-10" width="120" height="80" class="box-face"/>
    <polygon points="500,-10 520,-30 640,-30 620,-10" class="box-top"/>
    <polygon points="620,-10 640,-30 640,50 620,70" class="box-right"/>
    <text x="560" y="20" class="box-text">Tier 3</text>
    <text x="560" y="40" class="box-text-small">AI Model</text>
    <text x="480" y="-15" class="box-text" transform="skewX(-45) translate(65,0)">Chat</text>
  </g>

  <!-- Auth Feature (offset +60, -60) -->
  <!-- Auth - Front End Box (Tier 2) -->
  <g>
    <!-- Tier 3 base -->
    <rect x="110" y="50" width="120" height="60" class="box-face"/>
    <polygon points="110,50 130,30 250,30 230,50" class="box-top"/>
    <polygon points="230,50 250,30 250,90 230,110" class="box-right"/>
    <text x="170" y="75" class="box-text">Tier 3</text>
    <text x="170" y="95" class="box-text-small">Front End</text>

    <!-- Tier 2 on top -->
    <rect x="110" y="20" width="120" height="20" class="box-face"/>
    <polygon points="110,20 130,0 250,0 230,20" class="box-top"/>
    <polygon points="230,20 250,0 250,20 230,40" class="box-right"/>
    <text x="170" y="35" class="box-text">Tier 2</text>
    <text x="125" y="13" class="box-text" transform="skewX(-45) translate(65,0)">Auth</text>
  </g>

  <!-- Auth - Web API Box (Tier 2) -->
  <g>
    <!-- Tier 3 base -->
    <rect x="290" y="50" width="120" height="60" class="box-face"/>
    <polygon points="290,50 310,30 430,30 410,50" class="box-top"/>
    <polygon points="410,50 430,30 430,90 410,110" class="box-right"/>
    <text x="350" y="75" class="box-text">Tier 3</text>
    <text x="350" y="95" class="box-text-small">Web API</text>

    <!-- Tier 2 on top -->
    <rect x="290" y="20" width="120" height="20" class="box-face"/>
    <polygon points="290,20 310,0 430,0 410,20" class="box-top"/>
    <polygon points="410,20 430,0 430,20 410,40" class="box-right"/>
    <text x="350" y="35" class="box-text">Tier 2</text>
    <text x="310" y="13" class="box-text" transform="skewX(-45) translate(65,0)">Auth</text>
  </g>

  <!-- Auth - Database Box (Tier 2) -->
  <g>
    <!-- Tier 3 base -->
    <rect x="470" y="50" width="120" height="60" class="box-face"/>
    <polygon points="470,50 490,30 610,30 590,50" class="box-top"/>
    <polygon points="590,50 610,30 610,90 590,110" class="box-right"/>
    <text x="530" y="75" class="box-text">Tier 3</text>
    <text x="530" y="95" class="box-text-small">Database</text>

    <!-- Tier 2 on top -->
    <rect x="470" y="20" width="120" height="20" class="box-face"/>
    <polygon points="470,20 490,0 610,0 590,20" class="box-top"/>
    <polygon points="590,20 610,0 610,20 590,40" class="box-right"/>
    <text x="530" y="35" class="box-text">Tier 2</text>
    <text x="490" y="13" class="box-text" transform="skewX(-45) translate(65,0)">Auth</text>
  </g>

  <!-- Exposures Feature (offset +30, -30) -->
  <!-- Exposures - Front End Box (Tier 3) -->
  <g>
    <rect x="80" y="80" width="120" height="80" class="box-face"/>
    <polygon points="80,80 100,60 220,60 200,80" class="box-top"/>
    <polygon points="200,80 220,60 220,140 200,160" class="box-right"/>
    <text x="140" y="110" class="box-text">Tier 3</text>
    <text x="140" y="130" class="box-text-small">Front End</text>
    <text x="155" y="73" class="box-text" transform="skewX(-45) translate(65,0)">Exposures</text>
  </g>

  <!-- Exposures - Web API Box (Tier 3) -->
  <g>
    <rect x="260" y="80" width="120" height="80" class="box-face"/>
    <polygon points="260,80 280,60 400,60 380,80" class="box-top"/>
    <polygon points="380,80 400,60 400,140 380,160" class="box-right"/>
    <text x="320" y="110" class="box-text">Tier 3</text>
    <text x="320" y="130" class="box-text-small">Web API</text>
    <text x="335" y="73" class="box-text" transform="skewX(-45) translate(65,0)">Exposures</text>
  </g>

  <!-- Exposures - Database Box (Tier 3) -->
  <g>
    <rect x="440" y="80" width="120" height="80" class="box-face"/>
    <polygon points="440,80 460,60 580,60 560,80" class="box-top"/>
    <polygon points="560,80 580,60 580,140 560,160" class="box-right"/>
    <text x="500" y="110" class="box-text">Tier 3</text>
    <text x="500" y="130" class="box-text-small">Database</text>
    <text x="515" y="73" class="box-text" transform="skewX(-45) translate(65,0)">Exposures</text>
  </g>

  <!-- Cashflows Feature (Front - offset +0, +0) -->
  <!-- Cashflows - Front End Box (Tier 3) -->
  <g>
    <rect x="50" y="110" width="120" height="80" class="box-face"/>
    <polygon points="50,110 70,90 190,90 170,110" class="box-top"/>
    <polygon points="170,110 190,90 190,170 170,190" class="box-right"/>
    <text x="110" y="140" class="box-text">Tier 3</text>
    <text x="110" y="160" class="box-text-small">Front End</text>
    <text x="155" y="103" class="box-text" transform="skewX(-45) translate(65,0)">Cashflows</text>
  </g>

  <!-- Cashflows - Web API Box (Tier 3) -->
  <g>
    <rect x="230" y="110" width="120" height="80" class="box-face"/>
    <polygon points="230,110 250,90 370,90 350,110" class="box-top"/>
    <polygon points="350,110 370,90 370,170 350,190" class="box-right"/>
    <text x="290" y="140" class="box-text">Tier 3</text>
    <text x="290" y="160" class="box-text-small">Web API</text>
    <text x="335" y="103" class="box-text" transform="skewX(-45) translate(65,0)">Cashflows</text>
  </g>

  <!-- Cashflows - Database Box (Tier 3) -->
  <g>
    <rect x="410" y="110" width="120" height="80" class="box-face"/>
    <polygon points="410,110 430,90 550,90 530,110" class="box-top"/>
    <polygon points="530,110 550,90 550,170 530,190" class="box-right"/>
    <text x="470" y="140" class="box-text">Tier 3</text>
    <text x="470" y="160" class="box-text-small">Database</text>
    <text x="515" y="103" class="box-text" transform="skewX(-45) translate(65,0)">Cashflows</text>
  </g>

  <!-- Axis Labels and Arrows -->
  <!-- X-axis (Technical Scope) -->
  <line x1="30" y1="220" x2="575" y2="220" class="axis-arrow"/>
  <text x="300" y="240" class="axis-label" text-anchor="middle">Technical Scope</text>

  <!-- Y-axis (Service Tier) -->
  <line x1="30" y1="220" x2="30" y2="110" class="axis-arrow"/>
  <text x="20" y="165" class="axis-label" text-anchor="middle" transform="rotate(-90, 20, 165)">Service Tier</text>

  <!-- Z-axis (Feature Scope) -->
  <line x1="575" y1="220" x2="655" y2="140" class="axis-arrow"/>
  <text x="630" y="190" class="axis-label" text-anchor="middle" transform="rotate(-45, 630, 190)">Feature Scope</text>
</svg>
