<svg width="645" height="190" viewBox="0 0 645 190" xmlns="http://www.w3.org/2000/svg">
  <defs>
    <style>
      .box-face { fill: #b6d7ea; stroke: #4477aa; stroke-width: 2; }
      .box-top { fill: #7db8da; stroke: #4477aa; stroke-width: 2; }
      .box-right { fill: #4477aaff; stroke: #4477aa; stroke-width: 2; }
      .box-text { font-family: Arial, sans-serif; font-size: 14px; font-weight: bold; text-anchor: middle; fill: #000; }
      .box-text-small { font-family: Arial, sans-serif; font-size: 12px; text-anchor: middle; fill: #000; }
      .axis-label { font-family: Arial, sans-serif; font-size: 12px; font-weight: bold; fill: #4477aa; }
      .axis-arrow { stroke: #4477aa; stroke-width: 2; fill: none; marker-end: url(#arrowhead); }
    </style>
    <defs>
      <marker id="arrowhead" markerWidth="10" markerHeight="7" 
       refX="9" refY="3.5" orient="auto">
        <polygon points="0 0, 10 3.5, 0 7" fill="#4477aa" />
      </marker>
    </defs>
  </defs>
  
  <!-- Front End Box -->
  <g>
    <!-- Front face -->
    <rect x="50" y="30" width="120" height="80" class="box-face"/>
    <!-- Top face - deeper perspective -->
    <polygon points="50,30 70,10 190,10 170,30" class="box-top"/>
    <!-- Right face - deeper perspective -->
    <polygon points="170,30 190,10 190,90 170,110" class="box-right"/>
    
    <!-- Text -->
    <text x="110" y="60" class="box-text">Tier 3</text>
    <text x="110" y="80" class="box-text-small">Front End</text>
    <text x="110" y="23" class="box-text" transform="skewX(-45) translate(25,0)">Feature A</text>
  </g>
  
  <!-- Web API Box -->
  <g>
    <!-- Front face -->
    <rect x="230" y="30" width="120" height="80" class="box-face"/>
    <!-- Top face - deeper perspective -->
    <polygon points="230,30 250,10 370,10 350,30" class="box-top"/>
    <!-- Right face - deeper perspective -->
    <polygon points="350,30 370,10 370,90 350,110" class="box-right"/>
    
    <!-- Text -->
    <text x="290" y="60" class="box-text">Tier 3</text>
    <text x="290" y="80" class="box-text-small">Web API</text>
    <text x="290" y="23" class="box-text" transform="skewX(-45) translate(25,0)">Feature A</text>
  </g>
  
  <!-- Database Box -->
  <g>
    <!-- Front face -->
    <rect x="420" y="30" width="120" height="80" class="box-face"/>
    
    <!-- Text -->
    <text x="480" y="60" class="box-text">Tier none</text>
    <text x="480" y="80" class="box-text-small">Database</text>
  </g>
  
  <!-- Axis Labels and Arrows -->
  <!-- X-axis (Technical Scope) -->
  <line x1="30" y1="130" x2="545" y2="130" class="axis-arrow"/>
  <text x="280" y="150" class="axis-label" text-anchor="middle">Technical Scope</text>
  
  <!-- Y-axis (Service Tier) -->
  <line x1="30" y1="130" x2="30" y2="20" class="axis-arrow"/>
  <text x="20" y="75" class="axis-label" text-anchor="middle" transform="rotate(-90, 20, 75)">Service Tier</text>
  
  <!-- Z-axis (Feature Scope) -->
  <line x1="545" y1="130" x2="625" y2="50" class="axis-arrow"/>
  <text x="600" y="100" class="axis-label" text-anchor="middle" transform="rotate(-45, 600, 100)">Feature Scope</text>
</svg>