<svg width="645" height="190" viewBox="0 0 645 190" xmlns="http://www.w3.org/2000/svg">
  <defs>
    <style>
      .box-face { fill: #b6d7ea; stroke: #4477aa; stroke-width: 2; }
      .box-top { fill: #7db8da; stroke: #4477aa; stroke-width: 2; }
      .box-right { fill: #4477aaff; stroke: #4477aa; stroke-width: 2; }
      .box-text { font-family: Arial, sans-serif; font-size: 14px; font-weight: bold; text-anchor: middle; fill: #000; }
      .box-text-small { font-family: Arial, sans-serif; font-size: 12px; text-anchor: middle; fill: #000; }
      .axis-label { font-family: Arial, sans-serif; font-size: 12px; font-weight: bold; fill: #4477aa; }
      .axis-arrow { stroke: #4477aa; stroke-width: 2; fill: none; marker-end: url(#arrowhead); }
    </style>
    <defs>
      <marker id="arrowhead" markerWidth="10" markerHeight="7" 
       refX="9" refY="3.5" orient="auto">
        <polygon points="0 0, 10 3.5, 0 7" fill="#4477aa" />
      </marker>
    </defs>
  </defs>
  
  <!-- Front End Box -->
  <g>
    <!-- Front face -->
    <rect x="50" y="60" width="120" height="80" class="box-face"/>
    <!-- Top face - deeper perspective -->
    <polygon points="50,60 70,40 190,40 170,60" class="box-top"/>
    <!-- Right face - deeper perspective -->
    <polygon points="170,60 190,40 190,120 170,140" class="box-right"/>
    
    <!-- Text -->
    <text x="110" y="90" class="box-text">Tier 3</text>
    <text x="110" y="110" class="box-text-small">Front End</text>


    <!-- Tier 2 -->
    <!-- Front face -->
    <rect x="50" y="30" width="120" height="20" class="box-face"/>
    <!-- Top face - deeper perspective -->
    <polygon points="50,30 70,10 190,10 170,30" class="box-top"/>
    <!-- Right face - deeper perspective -->
    <polygon points="170,30 190,10 190,30 170,50" class="box-right"/>
    <!-- Text -->
    <text x="110" y="45" class="box-text">Tier 2</text>
    <text x="110" y="30" class="box-text" transform="skewX(-45) translate(40,-5)">Feature A</text>
  </g>
  
  <!-- Web API Box -->
  <g>
    <!-- Front face -->
    <rect x="230" y="60" width="120" height="80" class="box-face"/>
    <!-- Top face - deeper perspective -->
    <polygon points="230,60 250,40 370,40 350,60" class="box-top"/>
    <!-- Right face - deeper perspective -->
    <polygon points="350,60 370,40 370,120 350,140" class="box-right"/>
    
    <!-- Text -->
    <text x="290" y="90" class="box-text">Tier 3</text>
    <text x="290" y="110" class="box-text-small">Web API</text>
    
    <!-- Tier 2 -->
    <!-- Front face -->
    <rect x="230" y="30" width="120" height="20" class="box-face"/>
    <!-- Top face - deeper perspective -->
    <polygon points="230,30 250,10 370,10 350,30" class="box-top"/>
    <!-- Right face - deeper perspective -->
    <polygon points="350,30 370,10 370,30 350,50" class="box-right"/>
    <!-- Text -->
    <text x="290" y="45" class="box-text">Tier 2</text>
    <text x="290" y="30" class="box-text" transform="skewX(-45) translate(40,-5)">Feature A</text>
  </g>
  
  <!-- Database Box -->
  <g>
    <!-- Front face -->
    <rect x="420" y="60" width="120" height="80" class="box-face"/>
    <!-- Top face - deeper perspective -->
    <polygon points="420,60 440,40 560,40 540,60" class="box-top"/>
    <!-- Right face - deeper perspective -->
    <polygon points="540,60 560,40 560,120 540,140" class="box-right"/>
    
    <!-- Text -->
    <text x="480" y="90" class="box-text">Tier 3</text>
    <text x="480" y="110" class="box-text-small">Database</text>

    <!-- Tier 2 -->
    <!-- Front face -->
    <rect x="420" y="30" width="120" height="20" class="box-face"/>
    <!-- Top face - deeper perspective -->
    <polygon points="420,30 440,10 560,10 540,30" class="box-top"/>
    <!-- Right face - deeper perspective -->
    <polygon points="540,30 560,10 560,30 540,50" class="box-right"/>
    <!-- Text -->
    <text x="480" y="45" class="box-text">Tier 2</text>
    <text x="480" y="30" class="box-text" transform="skewX(-45) translate(40,-5)">Feature A</text>
  </g>
  
  <!-- Axis Labels and Arrows -->
  <!-- X-axis (Technical Scope) -->
  <line x1="30" y1="160" x2="545" y2="160" class="axis-arrow"/>
  <text x="280" y="180" class="axis-label" text-anchor="middle">Technical Scope</text>
  
  <!-- Y-axis (Service Tier) -->
  <line x1="30" y1="160" x2="30" y2="50" class="axis-arrow"/>
  <text x="20" y="105" class="axis-label" text-anchor="middle" transform="rotate(-90, 20, 105)">Service Tier</text>
  
  <!-- Z-axis (Feature Scope) -->
  <line x1="545" y1="160" x2="625" y2="80" class="axis-arrow"/>
  <text x="600" y="130" class="axis-label" text-anchor="middle" transform="rotate(-45, 600, 130)">Feature Scope</text>
</svg>