<svg width="650" height="270" viewBox="0 0 650 270" xmlns="http://www.w3.org/2000/svg">
  <defs>
    <style>
      .box-face { fill: #b6d7ea; stroke: #4477aa; stroke-width: 2; }
      .box-top { fill: #7db8da; stroke: #4477aa; stroke-width: 2; }
      .box-right { fill: #4477aaff; stroke: #4477aa; stroke-width: 2; }
      .box-text { font-family: Arial, sans-serif; font-size: 14px; font-weight: bold; text-anchor: middle; fill: #000; }
      .box-text-small { font-family: Arial, sans-serif; font-size: 12px; text-anchor: middle; fill: #000; }
      .axis-label { font-family: Arial, sans-serif; font-size: 12px; font-weight: bold; fill: #4477aa; }
      .axis-arrow { stroke: #4477aa; stroke-width: 2; fill: none; marker-end: url(#arrowhead); }
    </style>
    <defs>
      <marker id="arrowhead" markerWidth="10" markerHeight="7" 
       refX="9" refY="3.5" orient="auto">
        <polygon points="0 0, 10 3.5, 0 7" fill="#4477aa" />
      </marker>
    </defs>
  </defs>
  
  <!-- Front End Box -->
  <g>
    <!-- Feature B (10 back)-->
    <!-- Front face -->
    <rect x="70" y="70" width="120" height="80" class="box-face"/>
    <!-- Top face - deeper perspective -->
    <polygon points="70,70 90,50 210,50 190,70" class="box-top"/>
    <!-- Right face - deeper perspective -->
    <polygon points="190,70 210,50 210,130 190,150" class="box-right"/>
    <text x="100" y="63" class="box-text" transform="skewX(-45) translate(95,0)">Feature B</text>

    <!-- Front face -->
    <rect x="40" y="100" width="120" height="80" class="box-face"/>
    <!-- Top face - deeper perspective -->
    <polygon points="40,100 60,80 180,80 160,100" class="box-top"/>
    <!-- Right face - deeper perspective -->
    <polygon points="160,100 180,80 180,160 160,180" class="box-right"/>
    
    <!-- Text -->
    <text x="100" y="130" class="box-text">Tier 1</text>
    <text x="100" y="150" class="box-text-small">Front End</text>
    <text x="100" y="93" class="box-text" transform="skewX(-45) translate(95,0)">Feature A</text>
  </g>
  
  <!-- Web API Box -->
  <g>
    <!-- Feature B (10 back)-->
    <!-- Front face -->
    <rect x="250" y="70" width="120" height="80" class="box-face"/>
    <!-- Top face - deeper perspective -->
    <polygon points="250,70 270,50 390,50 370,70" class="box-top"/>
    <!-- Right face - deeper perspective -->
    <polygon points="370,70 390,50 390,130 370,150" class="box-right"/>
    <text x="280" y="63" class="box-text" transform="skewX(-45) translate(95,0)">Feature B</text>

    <!-- Front face -->
    <rect x="220" y="100" width="120" height="80" class="box-face"/>
    <!-- Top face - deeper perspective -->
    <polygon points="220,100 240,80 360,80 340,100" class="box-top"/>
    <!-- Right face - deeper perspective -->
    <polygon points="340,100 360,80 360,160 340,180" class="box-right"/>
    
    <!-- Text -->
    <text x="280" y="130" class="box-text">Tier 1</text>
    <text x="280" y="150" class="box-text-small">Web API</text>
    <text x="280" y="93" class="box-text" transform="skewX(-45) translate(95,0)">Feature A</text>
  </g>
  
  <!-- Database Box -->
  <g>
    <!-- Feature B (10 back)-->
    <!-- Front face -->
    <rect x="440" y="70" width="120" height="80" class="box-face"/>
    <!-- Top face - deeper perspective -->
    <polygon points="440,70 460,50 580,50 560,70" class="box-top"/>
    <!-- Right face - deeper perspective -->
    <polygon points="560,70 580,50 580,130 560,150" class="box-right"/>
    <text x="470" y="63" class="box-text" transform="skewX(-45) translate(95,0)">Feature B</text>

    <!-- Front face -->
    <rect x="410" y="100" width="120" height="80" class="box-face"/>
    <!-- Top face - deeper perspective -->
    <polygon points="410,100 430,80 550,80 530,100" class="box-top"/>
    <!-- Right face - deeper perspective -->
    <polygon points="530,100 550,80 550,160 530,180" class="box-right"/>
    
    <!-- Text -->
    <text x="470" y="130" class="box-text">Tier 1</text>
    <text x="470" y="150" class="box-text-small">Database</text>
    <text x="470" y="93" class="box-text" transform="skewX(-45) translate(95,0)">Feature A</text>
  </g>
  
  <!-- Axis Labels and Arrows -->
  <!-- X-axis (Technical Scope) -->
  <line x1="20" y1="200" x2="535" y2="200" class="axis-arrow"/>
  <text x="270" y="220" class="axis-label" text-anchor="middle">Technical Scope</text>
  
  <!-- Y-axis (Service Tier) -->
  <line x1="20" y1="200" x2="20" y2="90" class="axis-arrow"/>
  <text x="10" y="145" class="axis-label" text-anchor="middle" transform="rotate(-90, 10, 145)">Service Tier</text>
  
  <!-- Z-axis (Feature Scope) -->
  <line x1="535" y1="200" x2="615" y2="120" class="axis-arrow"/>
  <text x="590" y="170" class="axis-label" text-anchor="middle" transform="rotate(-45, 590, 170)">Feature Scope</text>
</svg>