<svg width="1030" height="530" xmlns="http://www.w3.org/2000/svg">
  <defs>
    <style>
      .matrix-title {
        font-family: Arial, sans-serif;
        font-size: 18px;
        font-weight: bold;
        text-anchor: middle;
        fill: #4477aa;
      }
      .axis-label {
        font-family: Arial, sans-serif;
        font-size: 12px;
        font-weight: bold;
        text-anchor: middle;
        fill: #4477aa;
      }
      .quadrant-label {
        font-family: Arial, sans-serif;
        font-size: 14px;
        font-weight: bold;
        text-anchor: middle;
        fill: black;
      }
      .quadrant-tag {
        font-family: Arial, sans-serif;
        font-size: 13px;
        font-weight: bold;
        font-style: italic;
        text-anchor: middle;
        fill: black;
      }
      .quadrant-description {
        font-family: Arial, sans-serif;
        font-size: 12px;
        text-anchor: middle;
        fill: black;
      }
      .grid-line {
        stroke: #4477aa;
        stroke-width: 2;
        fill: none;
      }
      .separator {
        stroke: #4477aa;
        stroke-width: 3;
        fill: none;
      }
      .arrow {
        stroke: #4477aa;
        stroke-width: 2;
        fill: #4477aa;
        marker-end: url(#arrowhead);
      }
      .quadrant1 { fill: #4477aa; }
      .quadrant2 { fill: #7db8da; }
      .quadrant3 { fill: #b6d7ea; }
      .quadrant4 { fill: #d4e6f1; }
    </style>
    <marker id="arrowhead" markerWidth="8" markerHeight="6" 
            refX="7" refY="3" orient="auto">
      <polygon points="0 0, 8 3, 0 6" fill="#4477aa" />
    </marker>
  </defs>
  
  <!-- Eisenhower Matrix (Left Side) -->
  <g id="eisenhower">
    <!-- Title -->
    <text x="275" y="30" class="matrix-title">Eisenhower Matrix</text>
    
    <!-- Matrix Background -->
    <rect x="75" y="60" width="400" height="400" fill="white" stroke="#4477aa" stroke-width="2"/>
    
    <!-- Quadrants -->
    <rect x="275" y="60" width="200" height="200" class="quadrant1"/>
    <rect x="75" y="60" width="200" height="200" class="quadrant2"/>
    <rect x="275" y="260" width="200" height="200" class="quadrant3"/>
    <rect x="75" y="260" width="200" height="200" class="quadrant4"/>
    
    <!-- Grid Lines -->
    <line x1="275" y1="60" x2="275" y2="460" class="grid-line"/>
    <line x1="75" y1="260" x2="475" y2="260" class="grid-line"/>
    
    <!-- Quadrant Labels -->
    <text x="375" y="100" class="quadrant-label">URGENT &amp;</text>
    <text x="375" y="120" class="quadrant-label">IMPORTANT</text>
    <text x="375" y="145" class="quadrant-tag">Do first</text>
    <text x="375" y="165" class="quadrant-description">Important &amp; Urgent</text>
    <text x="375" y="180" class="quadrant-description">Crisis, Emergencies</text>
    
    <text x="175" y="100" class="quadrant-label">IMPORTANT,</text>
    <text x="175" y="120" class="quadrant-label">NOT URGENT</text>
    <text x="175" y="145" class="quadrant-tag">Schedule</text>
    <text x="175" y="165" class="quadrant-description">Important &amp; Not Urgent</text>
    <text x="175" y="180" class="quadrant-description">Planning, Prevention</text>
    
    <text x="375" y="300" class="quadrant-label">URGENT,</text>
    <text x="375" y="320" class="quadrant-label">NOT IMPORTANT</text>
    <text x="375" y="345" class="quadrant-tag">Delegate</text>
    <text x="375" y="365" class="quadrant-description">Not Important &amp; Urgent</text>
    <text x="375" y="380" class="quadrant-description">Interruptions, Some Calls</text>
    
    <text x="175" y="300" class="quadrant-label">NOT URGENT</text>
    <text x="175" y="320" class="quadrant-label">OR IMPORTANT</text>
    <text x="175" y="345" class="quadrant-tag">Eliminate</text>
    <text x="175" y="365" class="quadrant-description">Not Important &amp; Not Urgent</text>
    <text x="175" y="380" class="quadrant-description">Time Wasters, Trivia</text>
    
    <!-- Axis Labels -->
    <line x1="50" y1="440" x2="50" y2="80" class="arrow"/>
    <text x="30" y="260" class="axis-label" transform="rotate(-90 30 260)">IMPORTANCE</text>
    <text x="50" y="75" class="axis-label" style="font-size: 10px;">High</text>
    <text x="50" y="455" class="axis-label" style="font-size: 10px;">Low</text>
    
    <line x1="95" y1="490" x2="455" y2="490" class="arrow"/>
    <text x="275" y="510" class="axis-label">URGENCY</text>
    <text x="105" y="505" class="axis-label" style="font-size: 10px;">Low</text>
    <text x="445" y="505" class="axis-label" style="font-size: 10px;">High</text>
  </g>
  
  <!-- Vertical Separator -->
  <line x1="520" y1="30" x2="520" y2="510" class="separator"/>
  
  <!-- Rumsfeld Matrix (Right Side) -->
  <g id="rumsfeld">
    <!-- Title -->
    <text x="800" y="30" class="matrix-title">Rumsfeld Matrix</text>
    
    <!-- Matrix Background -->
    <rect x="600" y="60" width="400" height="400" fill="white" stroke="#4477aa" stroke-width="2"/>
    
    <!-- Quadrants -->
    <rect x="800" y="60" width="200" height="200" class="quadrant1"/>
    <rect x="600" y="60" width="200" height="200" class="quadrant2"/>
    <rect x="800" y="260" width="200" height="200" class="quadrant3"/>
    <rect x="600" y="260" width="200" height="200" class="quadrant4"/>
    
    <!-- Grid Lines -->
    <line x1="800" y1="60" x2="800" y2="460" class="grid-line"/>
    <line x1="600" y1="260" x2="1000" y2="260" class="grid-line"/>
    
    <!-- Quadrant Labels -->
    <text x="900" y="100" class="quadrant-label">KNOWN</text>
    <text x="900" y="120" class="quadrant-label">KNOWNS</text>
    <text x="900" y="145" class="quadrant-tag">Facts</text>
    <text x="900" y="165" class="quadrant-description">Things I know I know</text>
    <text x="900" y="180" class="quadrant-description">Documented facts, skills,</text>
    <text x="900" y="195" class="quadrant-description">established processes</text>
    
    <text x="700" y="100" class="quadrant-label">KNOWN</text>
    <text x="700" y="120" class="quadrant-label">UNKNOWNS</text>
    <text x="700" y="145" class="quadrant-tag">Assumptions</text>
    <text x="700" y="165" class="quadrant-description">Things I know I don't know</text>
    <text x="700" y="180" class="quadrant-description">Identified risks, gaps,</text>
    <text x="700" y="195" class="quadrant-description">missing information</text>
    
    <text x="900" y="300" class="quadrant-label">UNKNOWN</text>
    <text x="900" y="320" class="quadrant-label">KNOWNS</text>
    <text x="900" y="345" class="quadrant-tag">Intuition</text>
    <text x="900" y="365" class="quadrant-description">Things I don't know I know</text>
    <text x="900" y="380" class="quadrant-description">Unconscious competence,</text>
    <text x="900" y="395" class="quadrant-description">tacit knowledge</text>
    
    <text x="700" y="300" class="quadrant-label">UNKNOWN</text>
    <text x="700" y="320" class="quadrant-label">UNKNOWNS</text>
    <text x="700" y="345" class="quadrant-tag">Surprises</text>
    <text x="700" y="365" class="quadrant-description">Things I don't know I don't know</text>
    <text x="700" y="380" class="quadrant-description">Blind spots, surprises,</text>
    <text x="700" y="395" class="quadrant-description">black swan events</text>
    
    <!-- Axis Labels -->
    <line x1="575" y1="460" x2="575" y2="100" class="arrow"/>
    <text x="555" y="280" class="axis-label" transform="rotate(-90 555 280)">I KNOW</text>
    <text x="575" y="95" class="axis-label" style="font-size: 10px;">Yes</text>
    <text x="575" y="475" class="axis-label" style="font-size: 10px;">No</text>
    
    <line x1="620" y1="490" x2="980" y2="490" class="arrow"/>
    <text x="800" y="510" class="axis-label">KNOWLEDGE EXISTS</text>
    <text x="630" y="505" class="axis-label" style="font-size: 10px;">No</text>
    <text x="970" y="505" class="axis-label" style="font-size: 10px;">Yes</text>
  </g>
</svg>